<svg width="30" height="30" viewBox="0 0 30 30" fill="none" xmlns="http://www.w3.org/2000/svg">
<path d="M30 15C30 23.2844 23.2844 30 15 30C6.71562 30 0 23.2844 0 15C0 6.71562 6.71562 0 15 0C23.2844 0 30 6.71562 30 15Z" fill="#4A7AFF"/>
<path d="M20.1076 4.44512V7.84172C20.1076 7.84172 16.2079 7.2757 16.2079 9.79156V12.3074H19.7302L19.2901 16.1442H16.2079V26.1449H12.3082V16.1442L8.97458 16.0812V12.3074H12.2453V9.41414C12.2453 9.41414 12.0295 5.11002 16.2709 4.31946C18.0321 3.99102 20.1076 4.44512 20.1076 4.44512Z" fill="white"/>
</svg>
