<svg width="185" height="156" viewBox="0 0 185 156" fill="none" xmlns="http://www.w3.org/2000/svg">
<path d="M88.7533 0.115378C61.1674 1.97582 40.25 25.8632 42.1157 53.3689C43.979 80.8769 67.9339 101.745 95.5198 99.8847C123.106 98.0242 144.03 74.1295 142.165 46.6214C140.299 19.1158 116.339 -1.74506 88.7533 0.115378ZM89.2496 7.43294C112.869 5.84 133.23 23.5642 134.828 47.1182C136.26 68.2335 122.116 86.7399 102.153 91.49C102.239 91.1619 102.307 90.8151 102.367 90.4571C102.894 88.6448 103.214 85.9417 103.02 85.7114C102.488 85.0818 105.163 78.5036 106.436 77.3108C108.121 75.7306 108.915 72.1835 108.44 68.3697C108.087 65.5383 108.271 64.0658 109.488 59.9374C110.431 56.7409 111.398 54.4624 112.169 53.6156C112.833 52.8869 114.089 50.8611 114.951 49.117C116.605 45.7736 119.838 42.1537 121.846 41.4007C123.858 40.6462 125.698 37.5738 125.508 35.2806C125.284 32.5785 124.517 31.4539 123.284 32.0308C122.568 32.3657 122.083 32.2399 121.407 31.5372C120.61 30.7068 120.468 30.7458 120.262 31.8594C120.133 32.559 119.666 33.1679 119.224 33.2005C118.601 33.2466 118.639 32.7567 119.407 31.0288C119.951 29.8056 120.378 27.8854 120.362 26.7606C120.332 24.7688 118.583 20.1809 117.756 19.9376C117.529 19.8708 115.823 21.1688 113.974 22.8114C108.994 27.2341 101.166 32.8313 99.8097 32.9399C99.157 32.9922 97.9225 32.891 97.0688 32.7189C95.4985 32.4024 93.1324 33.4692 87.5383 37.0065C85.1214 38.5347 83.6716 38.9538 80.2476 39.1062C77.6158 39.2233 75.1913 39.7532 73.9371 40.4889C72.0723 41.583 71.9361 41.8064 72.2834 43.1657C72.4919 43.9822 73.7961 45.7722 75.1792 47.1435L77.6905 49.6388L76.1578 52.0623C75.312 53.3968 74.3746 55.2847 74.0846 56.2528C73.7946 57.2208 72.6674 58.9704 71.5763 60.1434C69.4724 62.4054 65.4911 68.9767 64.2143 72.2866C63.898 73.1064 60.6641 75.2388 58.4289 76.314C53.3226 69.8118 50.0546 61.7576 49.4522 52.8757C47.8548 29.3229 65.6295 9.0269 89.2496 7.43294Z" fill="#EEEEEE"/>
<path d="M17.7 138.08C18.86 138.46 19.78 139.1 20.46 140C21.14 140.88 21.48 141.98 21.48 143.3C21.48 145.12 20.78 146.53 19.38 147.53C17.98 148.51 15.94 149 13.26 149H2.82V128H12.66C15.14 128 17.05 128.49 18.39 129.47C19.73 130.43 20.4 131.76 20.4 133.46C20.4 134.5 20.16 135.42 19.68 136.22C19.2 137.02 18.54 137.64 17.7 138.08ZM6.72 131.06V136.85H12.24C13.6 136.85 14.64 136.61 15.36 136.13C16.1 135.63 16.47 134.91 16.47 133.97C16.47 133.01 16.1 132.29 15.36 131.81C14.64 131.31 13.6 131.06 12.24 131.06H6.72ZM13.02 145.94C16.04 145.94 17.55 144.93 17.55 142.91C17.55 140.89 16.04 139.88 13.02 139.88H6.72V145.94H13.02ZM28.8523 135.32C29.9323 133.64 31.8323 132.8 34.5523 132.8V136.37C34.2323 136.31 33.9423 136.28 33.6823 136.28C32.2223 136.28 31.0823 136.71 30.2623 137.57C29.4423 138.41 29.0323 139.63 29.0323 141.23V149H25.2823V132.98H28.8523V135.32ZM53.3194 132.98L45.8194 150.29C45.1194 152.03 44.2694 153.25 43.2694 153.95C42.2694 154.67 41.0594 155.03 39.6394 155.03C38.8394 155.03 38.0494 154.9 37.2694 154.64C36.4894 154.38 35.8494 154.02 35.3494 153.56L36.8494 150.8C37.2094 151.14 37.6294 151.41 38.1094 151.61C38.6094 151.81 39.1094 151.91 39.6094 151.91C40.2694 151.91 40.8094 151.74 41.2294 151.4C41.6694 151.06 42.0694 150.49 42.4294 149.69L42.6994 149.06L35.7094 132.98H39.6094L44.6494 144.83L49.7194 132.98H53.3194ZM61.2851 132.8C63.6451 132.8 65.4451 133.37 66.6851 134.51C67.9451 135.63 68.5751 137.33 68.5751 139.61V149H65.0351V147.05C64.5751 147.75 63.9151 148.29 63.0551 148.67C62.2151 149.03 61.1951 149.21 59.9951 149.21C58.7951 149.21 57.7451 149.01 56.8451 148.61C55.9451 148.19 55.2451 147.62 54.7451 146.9C54.2651 146.16 54.0251 145.33 54.0251 144.41C54.0251 142.97 54.5551 141.82 55.6151 140.96C56.6951 140.08 58.3851 139.64 60.6851 139.64H64.8251V139.4C64.8251 138.28 64.4851 137.42 63.8051 136.82C63.1451 136.22 62.1551 135.92 60.8351 135.92C59.9351 135.92 59.0451 136.06 58.1651 136.34C57.3051 136.62 56.5751 137.01 55.9751 137.51L54.5051 134.78C55.3451 134.14 56.3551 133.65 57.5351 133.31C58.7151 132.97 59.9651 132.8 61.2851 132.8ZM60.7751 146.48C61.7151 146.48 62.5451 146.27 63.2651 145.85C64.0051 145.41 64.5251 144.79 64.8251 143.99V142.13H60.9551C58.7951 142.13 57.7151 142.84 57.7151 144.26C57.7151 144.94 57.9851 145.48 58.5251 145.88C59.0651 146.28 59.8151 146.48 60.7751 146.48ZM82.4777 132.8C84.4977 132.8 86.1177 133.39 87.3377 134.57C88.5577 135.75 89.1677 137.5 89.1677 139.82V149H85.4177V140.3C85.4177 138.9 85.0877 137.85 84.4277 137.15C83.7677 136.43 82.8277 136.07 81.6077 136.07C80.2277 136.07 79.1377 136.49 78.3377 137.33C77.5377 138.15 77.1377 139.34 77.1377 140.9V149H73.3877V132.98H76.9577V135.05C77.5777 134.31 78.3577 133.75 79.2977 133.37C80.2377 132.99 81.2977 132.8 82.4777 132.8ZM113.575 149L113.545 135.08L106.645 146.6H104.905L98.0048 135.26V149H94.2848V128H97.4948L105.835 141.92L114.025 128H117.235L117.265 149H113.575ZM122.577 132.98H126.327V149H122.577V132.98ZM124.467 130.34C123.787 130.34 123.217 130.13 122.757 129.71C122.297 129.27 122.067 128.73 122.067 128.09C122.067 127.45 122.297 126.92 122.757 126.5C123.217 126.06 123.787 125.84 124.467 125.84C125.147 125.84 125.717 126.05 126.177 126.47C126.637 126.87 126.867 127.38 126.867 128C126.867 128.66 126.637 129.22 126.177 129.68C125.737 130.12 125.167 130.34 124.467 130.34ZM131.249 126.74H134.999V149H131.249V126.74ZM139.921 126.74H143.671V149H139.921V126.74ZM163.653 141.08C163.653 141.34 163.633 141.71 163.593 142.19H151.023C151.243 143.37 151.813 144.31 152.733 145.01C153.673 145.69 154.833 146.03 156.213 146.03C157.973 146.03 159.423 145.45 160.563 144.29L162.573 146.6C161.853 147.46 160.943 148.11 159.843 148.55C158.743 148.99 157.503 149.21 156.123 149.21C154.363 149.21 152.813 148.86 151.473 148.16C150.133 147.46 149.093 146.49 148.353 145.25C147.633 143.99 147.273 142.57 147.273 140.99C147.273 139.43 147.623 138.03 148.323 136.79C149.043 135.53 150.033 134.55 151.293 133.85C152.553 133.15 153.973 132.8 155.553 132.8C157.113 132.8 158.503 133.15 159.723 133.85C160.963 134.53 161.923 135.5 162.603 136.76C163.303 138 163.653 139.44 163.653 141.08ZM155.553 135.8C154.353 135.8 153.333 136.16 152.493 136.88C151.673 137.58 151.173 138.52 150.993 139.7H160.083C159.923 138.54 159.433 137.6 158.613 136.88C157.793 136.16 156.773 135.8 155.553 135.8ZM170.825 135.32C171.905 133.64 173.805 132.8 176.525 132.8V136.37C176.205 136.31 175.915 136.28 175.655 136.28C174.195 136.28 173.055 136.71 172.235 137.57C171.415 138.41 171.005 139.63 171.005 141.23V149H167.255V132.98H170.825V135.32Z" fill="#EEEEEE"/>
</svg>
