<svg width="169" height="40" viewBox="0 0 169 40" fill="none" xmlns="http://www.w3.org/2000/svg">
<path d="M18.7013 0.0461514C7.66697 0.790326 -0.699993 10.3453 0.0462867 21.3475C0.791585 32.3508 10.3736 40.698 21.4079 39.9539C32.4423 39.2097 40.8122 29.6518 40.0659 18.6486C39.3196 7.64632 29.7357 -0.698023 18.7013 0.0461514ZM18.8998 2.97317C28.3476 2.336 36.4918 9.42569 37.1312 18.8473C37.7041 27.2934 32.0463 34.6959 24.061 36.596C24.0956 36.4648 24.1228 36.3261 24.1467 36.1828C24.3577 35.4579 24.4858 34.3767 24.408 34.2846C24.1954 34.0327 25.2653 31.4014 25.7742 30.9243C26.4486 30.2922 26.766 28.8734 26.576 27.3479C26.4349 26.2153 26.5083 25.6263 26.9953 23.975C27.3724 22.6964 27.7592 21.785 28.0678 21.4462C28.3334 21.1548 28.8354 20.3444 29.1805 19.6468C29.8421 18.3095 31.1351 16.8615 31.9383 16.5603C32.7432 16.2585 33.4793 15.0295 33.4033 14.1122C33.3137 13.0314 33.0066 12.5816 32.5135 12.8123C32.2273 12.9463 32.033 12.896 31.7629 12.6149C31.4438 12.2827 31.3872 12.2983 31.3048 12.7438C31.253 13.0236 31.0663 13.2671 30.8897 13.2802C30.6402 13.2986 30.6557 13.1027 30.9628 12.4115C31.1803 11.9222 31.3514 11.1542 31.3446 10.7042C31.3326 9.90753 30.6332 8.07234 30.3026 7.97504C30.2118 7.94832 29.5293 8.46751 28.7895 9.12456C26.7975 10.8937 23.6666 13.1325 23.1239 13.176C22.8628 13.1969 22.369 13.1564 22.0275 13.0876C21.3994 12.961 20.453 13.3877 18.2153 14.8026C17.2486 15.4139 16.6686 15.5815 15.299 15.6425C14.2463 15.6893 13.2765 15.9013 12.7748 16.1956C12.0289 16.6332 11.9745 16.7226 12.1133 17.2663C12.1968 17.5929 12.7184 18.3089 13.2717 18.8574L14.2762 19.8555L13.6631 20.8249C13.3248 21.3587 12.9498 22.1139 12.8338 22.5011C12.7178 22.8883 12.267 23.5882 11.8305 24.0573C10.989 24.9622 9.39644 27.5907 8.88572 28.9146C8.7592 29.2426 7.46563 30.0955 6.57156 30.5256C4.52905 27.9247 3.22184 24.703 2.98089 21.1503C2.34191 11.7292 9.4518 3.61076 18.8998 2.97317Z" fill="#333333"/>
<path d="M61.8 19.72C62.5733 19.9733 63.1867 20.4 63.64 21C64.0933 21.5867 64.32 22.32 64.32 23.2C64.32 24.4133 63.8533 25.3533 62.92 26.02C61.9867 26.6733 60.6267 27 58.84 27H51.88V13H58.44C60.0933 13 61.3667 13.3267 62.26 13.98C63.1533 14.62 63.6 15.5067 63.6 16.64C63.6 17.3333 63.44 17.9467 63.12 18.48C62.8 19.0133 62.36 19.4267 61.8 19.72ZM54.48 15.04V18.9H58.16C59.0667 18.9 59.76 18.74 60.24 18.42C60.7333 18.0867 60.98 17.6067 60.98 16.98C60.98 16.34 60.7333 15.86 60.24 15.54C59.76 15.2067 59.0667 15.04 58.16 15.04H54.48ZM58.68 24.96C60.6933 24.96 61.7 24.2867 61.7 22.94C61.7 21.5933 60.6933 20.92 58.68 20.92H54.48V24.96H58.68ZM69.2348 17.88C69.9548 16.76 71.2215 16.2 73.0348 16.2V18.58C72.8215 18.54 72.6282 18.52 72.4548 18.52C71.4815 18.52 70.7215 18.8067 70.1748 19.38C69.6282 19.94 69.3548 20.7533 69.3548 21.82V27H66.8548V16.32H69.2348V17.88ZM85.5463 16.32L80.5463 27.86C80.0796 29.02 79.5129 29.8333 78.8463 30.3C78.1796 30.78 77.3729 31.02 76.4263 31.02C75.8929 31.02 75.3663 30.9333 74.8463 30.76C74.3263 30.5867 73.8996 30.3467 73.5662 30.04L74.5662 28.2C74.8063 28.4267 75.0863 28.6067 75.4063 28.74C75.7396 28.8733 76.0729 28.94 76.4062 28.94C76.8463 28.94 77.2063 28.8267 77.4863 28.6C77.7796 28.3733 78.0463 27.9933 78.2863 27.46L78.4663 27.04L73.8062 16.32H76.4062L79.7663 24.22L83.1463 16.32H85.5463ZM90.8567 16.2C92.4301 16.2 93.6301 16.58 94.4567 17.34C95.2967 18.0867 95.7167 19.22 95.7167 20.74V27H93.3567V25.7C93.0501 26.1667 92.6101 26.5267 92.0367 26.78C91.4767 27.02 90.7967 27.14 89.9967 27.14C89.1967 27.14 88.4967 27.0067 87.8967 26.74C87.2967 26.46 86.8301 26.08 86.4967 25.6C86.1767 25.1067 86.0167 24.5533 86.0167 23.94C86.0167 22.98 86.3701 22.2133 87.0767 21.64C87.7967 21.0533 88.9234 20.76 90.4567 20.76H93.2167V20.6C93.2167 19.8533 92.9901 19.28 92.5367 18.88C92.0967 18.48 91.4367 18.28 90.5567 18.28C89.9567 18.28 89.3634 18.3733 88.7767 18.56C88.2034 18.7467 87.7167 19.0067 87.3167 19.34L86.3367 17.52C86.8967 17.0933 87.5701 16.7667 88.3567 16.54C89.1434 16.3133 89.9767 16.2 90.8567 16.2ZM90.5167 25.32C91.1434 25.32 91.6967 25.18 92.1767 24.9C92.6701 24.6067 93.0167 24.1933 93.2167 23.66V22.42H90.6367C89.1967 22.42 88.4767 22.8933 88.4767 23.84C88.4767 24.2933 88.6567 24.6533 89.0167 24.92C89.3767 25.1867 89.8767 25.32 90.5167 25.32ZM104.985 16.2C106.332 16.2 107.412 16.5933 108.225 17.38C109.038 18.1667 109.445 19.3333 109.445 20.88V27H106.945V21.2C106.945 20.2667 106.725 19.5667 106.285 19.1C105.845 18.62 105.218 18.38 104.405 18.38C103.485 18.38 102.758 18.66 102.225 19.22C101.692 19.7667 101.425 20.56 101.425 21.6V27H98.9252V16.32H101.305V17.7C101.718 17.2067 102.238 16.8333 102.865 16.58C103.492 16.3267 104.198 16.2 104.985 16.2ZM125.717 27L125.697 17.72L121.097 25.4H119.937L115.337 17.84V27H112.857V13H114.997L120.557 22.28L126.017 13H128.157L128.177 27H125.717ZM131.718 16.32H134.218V27H131.718V16.32ZM132.978 14.56C132.525 14.56 132.145 14.42 131.838 14.14C131.531 13.8467 131.378 13.4867 131.378 13.06C131.378 12.6333 131.531 12.28 131.838 12C132.145 11.7067 132.525 11.56 132.978 11.56C133.431 11.56 133.811 11.7 134.118 11.98C134.425 12.2467 134.578 12.5867 134.578 13C134.578 13.44 134.425 13.8133 134.118 14.12C133.825 14.4133 133.445 14.56 132.978 14.56ZM137.499 12.16H139.999V27H137.499V12.16ZM143.281 12.16H145.781V27H143.281V12.16ZM159.102 21.72C159.102 21.8933 159.089 22.14 159.062 22.46H150.682C150.829 23.2467 151.209 23.8733 151.822 24.34C152.449 24.7933 153.222 25.02 154.142 25.02C155.315 25.02 156.282 24.6333 157.042 23.86L158.382 25.4C157.902 25.9733 157.295 26.4067 156.562 26.7C155.829 26.9933 155.002 27.14 154.082 27.14C152.909 27.14 151.875 26.9067 150.982 26.44C150.089 25.9733 149.395 25.3267 148.902 24.5C148.422 23.66 148.182 22.7133 148.182 21.66C148.182 20.62 148.415 19.6867 148.882 18.86C149.362 18.02 150.022 17.3667 150.862 16.9C151.702 16.4333 152.649 16.2 153.702 16.2C154.742 16.2 155.669 16.4333 156.482 16.9C157.309 17.3533 157.949 18 158.402 18.84C158.869 19.6667 159.102 20.6267 159.102 21.72ZM153.702 18.2C152.902 18.2 152.222 18.44 151.662 18.92C151.115 19.3867 150.782 20.0133 150.662 20.8H156.722C156.615 20.0267 156.289 19.4 155.742 18.92C155.195 18.44 154.515 18.2 153.702 18.2ZM163.883 17.88C164.603 16.76 165.87 16.2 167.683 16.2V18.58C167.47 18.54 167.277 18.52 167.103 18.52C166.13 18.52 165.37 18.8067 164.823 19.38C164.277 19.94 164.003 20.7533 164.003 21.82V27H161.503V16.32H163.883V17.88Z" fill="#3D85CC"/>
</svg>
