<svg width="30" height="30" viewBox="0 0 30 30" fill="none" xmlns="http://www.w3.org/2000/svg">
<path d="M15 30C23.2843 30 30 23.2843 30 15C30 6.71573 23.2843 0 15 0C6.71573 0 0 6.71573 0 15C0 23.2843 6.71573 30 15 30Z" fill="#F26798"/>
<path d="M14.9997 5.47412C9.74043 5.47412 5.46167 9.74782 5.46167 15.0004C5.46167 20.253 9.74043 24.5265 14.9997 24.5265C20.2593 24.5265 24.5383 20.2533 24.5383 15.0004C24.5383 9.74782 20.2593 5.47412 14.9997 5.47412ZM21.2761 9.97028C22.3641 11.3187 23.0254 13.0217 23.0559 14.8774C22.6938 14.8031 21.1606 14.5173 19.3285 14.5173C18.7373 14.5173 18.1151 14.5469 17.4912 14.6239C17.4386 14.4959 17.3859 14.3683 17.3305 14.2394C17.1688 13.8589 16.9944 13.4814 16.8139 13.1094C19.6338 11.9476 20.994 10.3353 21.2761 9.97028ZM14.9997 6.96536C17.0321 6.96536 18.89 7.72046 20.309 8.9641C20.0844 9.27052 18.8662 10.7933 16.1471 11.8206C14.8885 9.52 13.5109 7.61485 13.1831 7.17258C13.7673 7.03728 14.3754 6.96536 14.9997 6.96536ZM11.5384 7.74613C11.8162 8.12877 13.1959 10.0542 14.4869 12.3364C11.0223 13.2472 7.94572 13.3065 7.20318 13.3065H7.1243C7.65774 10.8481 9.31876 8.80527 11.5384 7.74613ZM6.9414 15.013C6.9414 14.9467 6.94247 14.8804 6.94461 14.8143C6.99274 14.8149 7.06387 14.8149 7.15612 14.8149C8.15615 14.8149 11.6274 14.7322 15.2045 13.6707C15.4216 14.0953 15.6283 14.5263 15.8206 14.9571C15.7302 14.983 15.6412 15.009 15.5527 15.0379C11.525 16.3387 9.31127 19.7824 8.97062 20.3453C7.70854 18.9233 6.9414 17.0564 6.9414 15.013ZM14.9997 23.0601C13.1515 23.0601 11.4458 22.4341 10.0848 21.3846C10.3151 20.9333 11.986 17.9249 16.3998 16.3887C16.4024 16.3876 16.4054 16.3866 16.4086 16.3858C17.5153 19.2672 17.984 21.6854 18.1127 22.4349C17.1549 22.8376 16.103 23.0601 14.9997 23.0601ZM19.564 21.6416C19.456 21.0215 19.0218 18.7551 18.0196 15.9908C18.5817 15.9034 19.1285 15.8689 19.6413 15.8689C21.3256 15.8689 22.643 16.2376 22.9492 16.3312C22.5853 18.5262 21.3285 20.4258 19.564 21.6416Z" fill="#F1F2F2"/>
</svg>
