<svg width="51" height="50" viewBox="0 0 51 50" fill="none" xmlns="http://www.w3.org/2000/svg">
<path d="M25.4697 50C39.2768 50 50.4697 38.8071 50.4697 25C50.4697 11.1929 39.2768 0 25.4697 0C11.6626 0 0.469727 11.1929 0.469727 25C0.469727 38.8071 11.6626 50 25.4697 50Z" fill="#4176FA"/>
<path d="M34.4322 20.6519C27.2113 20.6519 27.202 27.8455 27.202 27.8825C27.202 27.8825 26.7073 35.0851 34.4322 35.0851C34.4322 35.0851 40.8745 35.4514 40.8745 30.0724H37.5664C37.5664 30.0724 37.6761 32.0975 34.5423 32.0975C34.5423 32.0975 31.2342 32.3176 31.2342 28.826H40.9846C40.9846 28.826 42.0568 20.6519 34.4322 20.6519ZM31.1972 26.3058C31.1972 26.3058 31.6005 23.41 34.5057 23.41C37.4198 23.41 37.3739 26.3058 37.3739 26.3058H31.1972ZM22.9322 24.455C22.9322 24.455 25.8004 24.2443 25.8004 20.872C25.8004 17.5092 23.4545 15.8594 20.4763 15.8594H10.6796V34.6907H20.4754C20.4754 34.6907 26.4595 34.8743 26.4595 29.1286C26.46 29.1286 26.7167 24.455 22.9322 24.455ZM14.9961 19.204H20.4758C20.4758 19.204 21.8047 19.204 21.8047 21.1648C21.8047 23.1257 21.0257 23.41 20.1367 23.41H14.9961V19.204ZM20.2013 31.3461H14.9961V26.3058H20.4758C20.4758 26.3058 22.4647 26.2875 22.4554 28.899C22.4554 31.0988 20.9803 31.3278 20.2013 31.3461ZM30.3817 16.9681V19.2869H38.1529V16.9681H30.3817Z" fill="#F1F2F2"/>
</svg>
