<svg width="199" height="50" viewBox="0 0 199 50" fill="none" xmlns="http://www.w3.org/2000/svg">
<path d="M23.8464 0.0576892C10.0534 0.987908 -0.405264 12.9316 0.527585 26.6844C1.45921 40.4385 13.4367 50.8725 27.2296 49.9423C41.0225 49.0121 51.4849 37.0647 50.5521 23.3107C49.6192 9.55789 37.6393 -0.872529 23.8464 0.0576892ZM24.0945 3.71647C35.9042 2.92 46.0845 11.7821 46.8837 23.5591C47.5998 34.1168 40.5276 43.3699 30.546 45.745C30.5893 45.581 30.6233 45.4076 30.653 45.2286C30.9169 44.3224 31.0769 42.9709 30.9797 42.8557C30.7139 42.5409 32.0513 39.2518 32.6875 38.6554C33.5304 37.8653 33.9272 36.0918 33.6897 34.1849C33.5134 32.7691 33.6051 32.0329 34.2139 29.9687C34.6852 28.3705 35.1687 27.2312 35.5545 26.8078C35.8864 26.4434 36.514 25.4306 36.9454 24.5585C37.7724 22.8868 39.3886 21.0769 40.3926 20.7004C41.3988 20.3231 42.3189 18.7869 42.2239 17.6403C42.1118 16.2892 41.728 15.7269 41.1116 16.0154C40.7539 16.1828 40.511 16.12 40.1734 15.7686C39.7745 15.3534 39.7037 15.3729 39.6007 15.9297C39.536 16.2795 39.3026 16.5839 39.0818 16.6003C38.77 16.6233 38.7893 16.3784 39.1733 15.5144C39.4451 14.9028 39.659 13.9427 39.6505 13.3803C39.6355 12.3844 38.7612 10.0904 38.348 9.96881C38.2345 9.9354 37.3814 10.5844 36.4566 11.4057C33.9666 13.6171 30.053 16.4157 29.3746 16.4699C29.0483 16.4961 28.431 16.4455 28.0041 16.3595C27.219 16.2012 26.0359 16.7346 23.2389 18.5032C22.0304 19.2673 21.3055 19.4769 19.5935 19.5531C18.2776 19.6117 17.0654 19.8766 16.4383 20.2445C15.5059 20.7915 15.4378 20.9032 15.6114 21.5828C15.7157 21.9911 16.3678 22.8861 17.0593 23.5717L18.315 24.8194L17.5486 26.0312C17.1257 26.6984 16.657 27.6424 16.512 28.1264C16.367 28.6104 15.8034 29.4852 15.2579 30.0717C14.2059 31.2027 12.2153 34.4883 11.5769 36.1433C11.4187 36.5532 9.80176 37.6194 8.68418 38.157C6.13104 34.9059 4.49702 30.8788 4.19584 26.4378C3.39712 14.6615 12.2845 4.51345 24.0945 3.71647Z" fill="#333333"/>
<path d="M80.4497 23.992C81.3004 24.2707 81.9751 24.74 82.4737 25.4C82.9724 26.0453 83.2217 26.852 83.2217 27.82C83.2217 29.1547 82.7084 30.1887 81.6817 30.922C80.6551 31.6407 79.1591 32 77.1937 32H69.5377V16.6H76.7537C78.5724 16.6 79.9731 16.9593 80.9557 17.678C81.9384 18.382 82.4297 19.3573 82.4297 20.604C82.4297 21.3667 82.2537 22.0413 81.9017 22.628C81.5497 23.2147 81.0657 23.6693 80.4497 23.992ZM72.3977 18.844V23.09H76.4457C77.4431 23.09 78.2057 22.914 78.7337 22.562C79.2764 22.1953 79.5477 21.6673 79.5477 20.978C79.5477 20.274 79.2764 19.746 78.7337 19.394C78.2057 19.0273 77.4431 18.844 76.4457 18.844H72.3977ZM77.0177 29.756C79.2324 29.756 80.3397 29.0153 80.3397 27.534C80.3397 26.0527 79.2324 25.312 77.0177 25.312H72.3977V29.756H77.0177ZM88.6281 21.968C89.4201 20.736 90.8134 20.12 92.8081 20.12V22.738C92.5734 22.694 92.3607 22.672 92.1701 22.672C91.0994 22.672 90.2634 22.9873 89.6621 23.618C89.0607 24.234 88.7601 25.1287 88.7601 26.302V32H86.0101V20.252H88.6281V21.968ZM106.571 20.252L101.071 32.946C100.557 34.222 99.9339 35.1167 99.2006 35.63C98.4673 36.158 97.5799 36.422 96.5386 36.422C95.9519 36.422 95.3726 36.3267 94.8006 36.136C94.2286 35.9453 93.7593 35.6813 93.3926 35.344L94.4926 33.32C94.7566 33.5693 95.0646 33.7673 95.4166 33.914C95.7833 34.0607 96.1499 34.134 96.5166 34.134C97.0006 34.134 97.3966 34.0093 97.7046 33.76C98.0273 33.5107 98.3206 33.0927 98.5846 32.506L98.7826 32.044L93.6566 20.252H96.5166L100.213 28.942L103.931 20.252H106.571ZM112.412 20.12C114.143 20.12 115.463 20.538 116.372 21.374C117.296 22.1953 117.758 23.442 117.758 25.114V32H115.162V30.57C114.825 31.0833 114.341 31.4793 113.71 31.758C113.094 32.022 112.346 32.154 111.466 32.154C110.586 32.154 109.816 32.0073 109.156 31.714C108.496 31.406 107.983 30.988 107.616 30.46C107.264 29.9173 107.088 29.3087 107.088 28.634C107.088 27.578 107.477 26.7347 108.254 26.104C109.046 25.4587 110.285 25.136 111.972 25.136H115.008V24.96C115.008 24.1387 114.759 23.508 114.26 23.068C113.776 22.628 113.05 22.408 112.082 22.408C111.422 22.408 110.769 22.5107 110.124 22.716C109.493 22.9213 108.958 23.2073 108.518 23.574L107.44 21.572C108.056 21.1027 108.797 20.7433 109.662 20.494C110.527 20.2447 111.444 20.12 112.412 20.12ZM112.038 30.152C112.727 30.152 113.336 29.998 113.864 29.69C114.407 29.3673 114.788 28.9127 115.008 28.326V26.962H112.17C110.586 26.962 109.794 27.4827 109.794 28.524C109.794 29.0227 109.992 29.4187 110.388 29.712C110.784 30.0053 111.334 30.152 112.038 30.152ZM127.953 20.12C129.435 20.12 130.623 20.5527 131.517 21.418C132.412 22.2833 132.859 23.5667 132.859 25.268V32H130.109V25.62C130.109 24.5933 129.867 23.8233 129.383 23.31C128.899 22.782 128.21 22.518 127.315 22.518C126.303 22.518 125.504 22.826 124.917 23.442C124.331 24.0433 124.037 24.916 124.037 26.06V32H121.287V20.252H123.905V21.77C124.36 21.2273 124.932 20.8167 125.621 20.538C126.311 20.2593 127.088 20.12 127.953 20.12ZM150.758 32L150.736 21.792L145.676 30.24H144.4L139.34 21.924V32H136.612V16.6H138.966L145.082 26.808L151.088 16.6H153.442L153.464 32H150.758ZM157.36 20.252H160.11V32H157.36V20.252ZM158.746 18.316C158.247 18.316 157.829 18.162 157.492 17.854C157.154 17.5313 156.986 17.1353 156.986 16.666C156.986 16.1967 157.154 15.808 157.492 15.5C157.829 15.1773 158.247 15.016 158.746 15.016C159.244 15.016 159.662 15.17 160 15.478C160.337 15.7713 160.506 16.1453 160.506 16.6C160.506 17.084 160.337 17.4947 160 17.832C159.677 18.1547 159.259 18.316 158.746 18.316ZM163.719 15.676H166.469V32H163.719V15.676ZM170.078 15.676H172.828V32H170.078V15.676ZM187.482 26.192C187.482 26.3827 187.467 26.654 187.438 27.006H178.22C178.381 27.8713 178.799 28.5607 179.474 29.074C180.163 29.5727 181.014 29.822 182.026 29.822C183.316 29.822 184.38 29.3967 185.216 28.546L186.69 30.24C186.162 30.8707 185.494 31.3473 184.688 31.67C183.881 31.9927 182.972 32.154 181.96 32.154C180.669 32.154 179.532 31.8973 178.55 31.384C177.567 30.8707 176.804 30.1593 176.262 29.25C175.734 28.326 175.47 27.2847 175.47 26.126C175.47 24.982 175.726 23.9553 176.24 23.046C176.768 22.122 177.494 21.4033 178.418 20.89C179.342 20.3767 180.383 20.12 181.542 20.12C182.686 20.12 183.705 20.3767 184.6 20.89C185.509 21.3887 186.213 22.1 186.712 23.024C187.225 23.9333 187.482 24.9893 187.482 26.192ZM181.542 22.32C180.662 22.32 179.914 22.584 179.298 23.112C178.696 23.6253 178.33 24.3147 178.198 25.18H184.864C184.746 24.3293 184.387 23.64 183.786 23.112C183.184 22.584 182.436 22.32 181.542 22.32ZM192.741 21.968C193.533 20.736 194.927 20.12 196.921 20.12V22.738C196.687 22.694 196.474 22.672 196.283 22.672C195.213 22.672 194.377 22.9873 193.775 23.618C193.174 24.234 192.873 25.1287 192.873 26.302V32H190.123V20.252H192.741V21.968Z" fill="#3D85CC"/>
</svg>
