<svg width="185" height="135" viewBox="0 0 185 135" fill="none" xmlns="http://www.w3.org/2000/svg">
<path d="M79.4026 0.0923027C57.3339 1.58065 40.6 20.6906 42.0926 42.6951C43.5832 64.7015 62.7472 81.3961 84.8158 79.9077C106.885 78.4194 123.624 59.3036 122.132 37.2971C120.639 15.2926 101.471 -1.39605 79.4026 0.0923027ZM79.7997 5.94635C98.6951 4.672 114.984 18.8514 116.262 37.6945C117.408 54.5868 106.093 69.3919 90.122 73.192C90.1913 72.9296 90.2457 72.6521 90.2933 72.3657C90.7155 70.9159 90.9715 68.7534 90.816 68.5691C90.3907 68.0654 92.5305 62.8029 93.5485 61.8487C94.8971 60.5845 95.532 57.7468 95.152 54.6958C94.8699 52.4306 95.0166 51.2526 95.9907 47.9499C96.7448 45.3927 97.5183 43.5699 98.1356 42.8925C98.6667 42.3095 99.6708 40.6889 100.361 39.2936C101.684 36.6189 104.27 33.723 105.877 33.1206C107.486 32.5169 108.959 30.059 108.807 28.2245C108.627 26.0628 108.013 25.1631 107.027 25.6247C106.455 25.8925 106.066 25.7919 105.526 25.2297C104.888 24.5654 104.774 24.5966 104.61 25.4875C104.506 26.0472 104.133 26.5343 103.779 26.5604C103.28 26.5973 103.311 26.2054 103.926 24.8231C104.361 23.8445 104.703 22.3083 104.689 21.4085C104.665 19.8151 103.266 16.1447 102.605 15.9501C102.424 15.8966 101.059 16.935 99.5791 18.2491C95.595 21.7873 89.3332 26.2651 88.2478 26.3519C87.7256 26.3938 86.738 26.3128 86.055 26.1751C84.7988 25.9219 82.906 26.7754 78.4306 29.6052C76.4971 30.8277 75.3372 31.1631 72.5981 31.285C70.4926 31.3786 68.5531 31.8026 67.5497 32.3911C66.0578 33.2664 65.9489 33.4451 66.2267 34.5325C66.3936 35.1857 67.4369 36.6178 68.5434 37.7148L70.5524 39.7111L69.3262 41.6499C68.6496 42.7174 67.8997 44.2278 67.6677 45.0023C67.4356 45.7767 66.534 47.1763 65.6611 48.1147C63.9779 49.9243 60.7929 55.1813 59.7714 57.8293C59.5184 58.4851 56.9313 60.1911 55.1431 61.0512C51.0581 55.8494 48.4437 49.4061 47.9618 42.3005C46.6838 23.4583 60.9036 7.22152 79.7997 5.94635Z" fill="#EEEEEE"/>
<path d="M16.52 118.808C17.6027 119.163 18.4613 119.76 19.096 120.6C19.7307 121.421 20.048 122.448 20.048 123.68C20.048 125.379 19.3947 126.695 18.088 127.628C16.7813 128.543 14.8773 129 12.376 129H2.632V109.4H11.816C14.1307 109.4 15.9133 109.857 17.164 110.772C18.4147 111.668 19.04 112.909 19.04 114.496C19.04 115.467 18.816 116.325 18.368 117.072C17.92 117.819 17.304 118.397 16.52 118.808ZM6.272 112.256V117.66H11.424C12.6933 117.66 13.664 117.436 14.336 116.988C15.0267 116.521 15.372 115.849 15.372 114.972C15.372 114.076 15.0267 113.404 14.336 112.956C13.664 112.489 12.6933 112.256 11.424 112.256H6.272ZM12.152 126.144C14.9707 126.144 16.38 125.201 16.38 123.316C16.38 121.431 14.9707 120.488 12.152 120.488H6.272V126.144H12.152ZM26.9288 116.232C27.9368 114.664 29.7101 113.88 32.2488 113.88V117.212C31.9501 117.156 31.6794 117.128 31.4368 117.128C30.0741 117.128 29.0101 117.529 28.2448 118.332C27.4794 119.116 27.0968 120.255 27.0968 121.748V129H23.5968V114.048H26.9288V116.232ZM49.7648 114.048L42.7648 130.204C42.1114 131.828 41.3181 132.967 40.3848 133.62C39.4514 134.292 38.3221 134.628 36.9968 134.628C36.2501 134.628 35.5128 134.507 34.7848 134.264C34.0568 134.021 33.4594 133.685 32.9927 133.256L34.3927 130.68C34.7288 130.997 35.1208 131.249 35.5688 131.436C36.0354 131.623 36.5021 131.716 36.9688 131.716C37.5848 131.716 38.0888 131.557 38.4808 131.24C38.8914 130.923 39.2648 130.391 39.6008 129.644L39.8528 129.056L33.3287 114.048H36.9688L41.6728 125.108L46.4048 114.048H49.7648ZM57.1994 113.88C59.4021 113.88 61.0821 114.412 62.2394 115.476C63.4154 116.521 64.0034 118.108 64.0034 120.236V129H60.6994V127.18C60.2701 127.833 59.6541 128.337 58.8514 128.692C58.0674 129.028 57.1154 129.196 55.9954 129.196C54.8754 129.196 53.8954 129.009 53.0554 128.636C52.2154 128.244 51.5621 127.712 51.0954 127.04C50.6474 126.349 50.4234 125.575 50.4234 124.716C50.4234 123.372 50.9181 122.299 51.9074 121.496C52.9154 120.675 54.4927 120.264 56.6394 120.264H60.5034V120.04C60.5034 118.995 60.1861 118.192 59.5514 117.632C58.9354 117.072 58.0114 116.792 56.7794 116.792C55.9394 116.792 55.1087 116.923 54.2874 117.184C53.4847 117.445 52.8034 117.809 52.2434 118.276L50.8714 115.728C51.6554 115.131 52.5981 114.673 53.6994 114.356C54.8007 114.039 55.9674 113.88 57.1994 113.88ZM56.7234 126.648C57.6007 126.648 58.3754 126.452 59.0474 126.06C59.7381 125.649 60.2234 125.071 60.5034 124.324V122.588H56.8914C54.8754 122.588 53.8674 123.251 53.8674 124.576C53.8674 125.211 54.1194 125.715 54.6234 126.088C55.1274 126.461 55.8274 126.648 56.7234 126.648ZM76.9792 113.88C78.8646 113.88 80.3766 114.431 81.5152 115.532C82.6539 116.633 83.2232 118.267 83.2232 120.432V129H79.7232V120.88C79.7232 119.573 79.4152 118.593 78.7992 117.94C78.1832 117.268 77.3059 116.932 76.1672 116.932C74.8792 116.932 73.8619 117.324 73.1152 118.108C72.3686 118.873 71.9952 119.984 71.9952 121.44V129H68.4952V114.048H71.8272V115.98C72.4059 115.289 73.1339 114.767 74.0112 114.412C74.8886 114.057 75.8779 113.88 76.9792 113.88ZM106.003 129L105.975 116.008L99.5352 126.76H97.9112L91.4712 116.176V129H87.9992V109.4H90.9952L98.7792 122.392L106.423 109.4H109.419L109.447 129H106.003ZM114.405 114.048H117.905V129H114.405V114.048ZM116.169 111.584C115.535 111.584 115.003 111.388 114.573 110.996C114.144 110.585 113.929 110.081 113.929 109.484C113.929 108.887 114.144 108.392 114.573 108C115.003 107.589 115.535 107.384 116.169 107.384C116.804 107.384 117.336 107.58 117.765 107.972C118.195 108.345 118.409 108.821 118.409 109.4C118.409 110.016 118.195 110.539 117.765 110.968C117.355 111.379 116.823 111.584 116.169 111.584ZM122.499 108.224H125.999V129H122.499V108.224ZM130.593 108.224H134.093V129H130.593V108.224ZM152.743 121.608C152.743 121.851 152.724 122.196 152.687 122.644H140.955C141.16 123.745 141.692 124.623 142.551 125.276C143.428 125.911 144.511 126.228 145.799 126.228C147.441 126.228 148.795 125.687 149.859 124.604L151.735 126.76C151.063 127.563 150.213 128.169 149.187 128.58C148.16 128.991 147.003 129.196 145.715 129.196C144.072 129.196 142.625 128.869 141.375 128.216C140.124 127.563 139.153 126.657 138.463 125.5C137.791 124.324 137.455 122.999 137.455 121.524C137.455 120.068 137.781 118.761 138.435 117.604C139.107 116.428 140.031 115.513 141.207 114.86C142.383 114.207 143.708 113.88 145.183 113.88C146.639 113.88 147.936 114.207 149.075 114.86C150.232 115.495 151.128 116.4 151.763 117.576C152.416 118.733 152.743 120.077 152.743 121.608ZM145.183 116.68C144.063 116.68 143.111 117.016 142.327 117.688C141.561 118.341 141.095 119.219 140.927 120.32H149.411C149.261 119.237 148.804 118.36 148.039 117.688C147.273 117.016 146.321 116.68 145.183 116.68ZM159.437 116.232C160.445 114.664 162.218 113.88 164.757 113.88V117.212C164.458 117.156 164.187 117.128 163.945 117.128C162.582 117.128 161.518 117.529 160.753 118.332C159.987 119.116 159.605 120.255 159.605 121.748V129H156.105V114.048H159.437V116.232Z" fill="#EEEEEE"/>
</svg>
