<svg width="51" height="50" viewBox="0 0 51 50" fill="none" xmlns="http://www.w3.org/2000/svg">
<path d="M25.4697 50C39.2768 50 50.4697 38.8071 50.4697 25C50.4697 11.1929 39.2768 0 25.4697 0C11.6626 0 0.469727 11.1929 0.469727 25C0.469727 38.8071 11.6626 50 25.4697 50Z" fill="#F26798"/>
<path d="M25.4692 9.12305C16.7038 9.12305 9.57251 16.2459 9.57251 25.0002C9.57251 33.7546 16.7038 40.877 25.4692 40.877C34.2352 40.877 41.3669 33.755 41.3669 25.0002C41.3669 16.2459 34.2352 9.12305 25.4692 9.12305ZM35.93 16.6167C37.7433 18.8641 38.8454 21.7024 38.8962 24.7952C38.2928 24.6713 35.7374 24.1949 32.6839 24.1949C31.6985 24.1949 30.6615 24.2444 29.6218 24.3727C29.534 24.1593 29.4462 23.9467 29.354 23.7319C29.0843 23.0977 28.7938 22.4685 28.493 21.8486C33.1928 19.9122 35.4598 17.225 35.93 16.6167ZM25.4692 11.6084C28.8566 11.6084 31.953 12.867 34.318 14.9397C33.9437 15.4504 31.9133 17.9884 27.3815 19.7006C25.2839 15.8662 22.9879 12.6909 22.4415 11.9538C23.4152 11.7283 24.4287 11.6084 25.4692 11.6084ZM19.7003 12.9097C20.1634 13.5475 22.4629 16.7566 24.6145 20.5602C18.8402 22.0781 13.7126 22.177 12.475 22.177H12.3436C13.2326 18.0797 16.001 14.675 19.7003 12.9097ZM12.0387 25.0212C12.0387 24.9106 12.0405 24.8001 12.0441 24.6901C12.1243 24.6909 12.2428 24.6909 12.3966 24.6909C14.0633 24.6909 19.8487 24.5532 25.8106 22.784C26.1725 23.4917 26.517 24.2101 26.8374 24.928C26.6868 24.9713 26.5384 25.0145 26.3908 25.0626C19.678 27.2307 15.9885 32.9702 15.4208 33.9083C13.3173 31.5384 12.0387 28.4268 12.0387 25.0212ZM25.4692 38.433C22.3889 38.433 19.5461 37.3897 17.2778 35.6406C17.6615 34.8883 20.4463 29.8743 27.8027 27.314C27.8071 27.3123 27.812 27.3105 27.8174 27.3091C29.6619 32.1115 30.4431 36.1419 30.6575 37.3911C29.0612 38.0622 27.308 38.433 25.4692 38.433ZM33.0765 36.0688C32.8964 35.0354 32.1727 31.258 30.5024 26.6509C31.4392 26.5052 32.3505 26.4477 33.2053 26.4477C36.0124 26.4477 38.2081 27.0622 38.7184 27.2182C38.1119 30.8766 36.0173 34.0425 33.0765 36.0688Z" fill="#F1F2F2"/>
</svg>
