<svg width="30" height="30" viewBox="0 0 30 30" fill="none" xmlns="http://www.w3.org/2000/svg">
<path d="M15 30C23.2843 30 30 23.2843 30 15C30 6.71573 23.2843 0 15 0C6.71573 0 0 6.71573 0 15C0 23.2843 6.71573 30 15 30Z" fill="#4176FA"/>
<path d="M20.3775 12.3911C16.045 12.3911 16.0394 16.7073 16.0394 16.7295C16.0394 16.7295 15.7426 21.0511 20.3775 21.0511C20.3775 21.0511 24.2429 21.2709 24.2429 18.0435H22.2581C22.2581 18.0435 22.3238 19.2585 20.4436 19.2585C20.4436 19.2585 18.4587 19.3906 18.4587 17.2956H24.3089C24.3089 17.2956 24.9523 12.3911 20.3775 12.3911ZM18.4365 15.7835C18.4365 15.7835 18.6785 14.046 20.4216 14.046C22.1701 14.046 22.1426 15.7835 22.1426 15.7835H18.4365ZM13.4775 14.673C13.4775 14.673 15.1985 14.5466 15.1985 12.5232C15.1985 10.5055 13.7909 9.51562 12.004 9.51562H6.12595V20.8144H12.0034C12.0034 20.8144 15.5939 20.9246 15.5939 17.4771C15.5942 17.4771 15.7482 14.673 13.4775 14.673ZM8.71588 11.5224H12.0037C12.0037 11.5224 12.801 11.5224 12.801 12.6989C12.801 13.8754 12.3337 14.046 11.8002 14.046H8.71588V11.5224ZM11.839 18.8077H8.71588V15.7835H12.0037C12.0037 15.7835 13.1971 15.7725 13.1914 17.3394C13.1914 18.6593 12.3064 18.7967 11.839 18.8077ZM17.9472 10.1809V11.5721H22.61V10.1809H17.9472Z" fill="#F1F2F2"/>
</svg>
